<svg xmlns="http://www.w3.org/2000/svg" viewBox="0 0 110 24" id="logo">
    <path fill="#2254F4" d="M87.296 9.588h6.771v2.198h-6.771zm0-8.945h7.118v2.198h-7.118zm-27.763 0h7.118v2.198h-7.118zM71.87 3.029h5.527v6.303h3.494V7.135h-1.296V.831h-9.707l-.856 8.258 2.186.227zM8.494 7.128H5.993V3.47h2.388v1.142h16.548V2.299h-7.118V0h-2.313v2.299H8.494V1.157H1.08V3.47h2.6v3.658h-2.6v2.313h2.6v.027L0 19.09l2.161.827 1.519-3.973v6.74h2.313V9.441h2.501zm51.039 2.46h6.771v2.198h-6.771zM43.493 0H41.18v2.251H31.153v4.273h2.313v-1.96h17.809v1.96h2.314V2.251H43.493zm37.369 11.834l.095-1.186h-11.65l.095 1.186c.016.206.339 3.537 3.943 6.885-1.507.997-3.287 1.853-5.301 2.542l.712 2.079c2.67-.914 4.753-2.016 6.376-3.171 1.624 1.155 3.707 2.257 6.377 3.171l.711-2.079c-2.014-.689-3.793-1.545-5.301-2.542 3.604-3.348 3.927-6.678 3.943-6.885zm-5.731 5.526a12.733 12.733 0 0 1-2.014-2.218 9.754 9.754 0 0 1-1.215-2.296h6.458a9.735 9.735 0 0 1-1.215 2.296 12.653 12.653 0 0 1-2.014 2.218zm12.067 5.433h8.325v-8.53h-8.325v8.53zm2.197-6.333h3.93v4.135h-3.93V16.46zM87.296 5.115h8.23v2.198h-8.23zm16.907 2.41V.268h-2.198v7.257h-5.709v2.198h5.709v13.156h2.198V9.723h5.709V7.525z"/>
    <path fill="#2254F4" d="M21.02 6.162h-8.731v4.204H8.295v12.318h2.313V12.679h1.681v7.786h8.731v-7.786h1.681v10.005h2.313V10.366H21.02V6.162zm-2.313 11.99h-4.104v-5.473h4.104v5.473zm0-7.786h-4.104V8.475h4.104v1.891zm24.669 9.781v-4.508h7.9v-2.313h-7.9v-3.199h9.075V7.813h-20.16v2.313h8.773v9.337c-3.389-1.353-5.016-3.682-5.454-4.403.002-.067.005-.134.005-.201v-2.823h-2.313v2.823c0 2.419-2.168 5.699-3.003 6.759l1.815 1.435c.103-.13 1.874-2.393 2.857-5.04 1.4 1.536 3.831 3.485 7.618 4.335 2.401.539 6.595.568 9.862.568h1.124v-2.313h-.531c-2.93.001-7.293.002-9.668-.456zm16.059 2.646h8.094v-8.53h-8.094v8.53zm2.197-6.333h3.699v4.135h-3.699V16.46zM59.533 5.115h8.23v2.198h-8.23z"/>
</svg>
